<svg viewBox="0 0 308 308" id="Layer_1" xmlns="http://www.w3.org/2000/svg">
<path d="M8.22799 117.596L8.22822 117.595C28.2912 37.1324 109.837 -11.8383 190.337 8.22092L190.337 8.22097C270.856 28.28 319.848 109.782 299.776 190.239C279.704 270.692 198.159 319.658 117.633 299.594C37.1429 279.535 -11.8535 198.043 8.22799 117.596ZM4.62671 116.697L4.61309 116.693L4.62671 116.697Z" fill="#0033AD" stroke="white" stroke-width="7.45163"/>
<path d="M221.875 131.979C224.941 111.5 209.337 100.491 188.001 93.1468L194.922 65.405L178.023 61.1967L171.285 88.2073C166.843 87.1011 162.28 86.0574 157.746 85.0234L164.533 57.8347L147.644 53.6263L140.718 81.3585C137.041 80.5216 133.431 79.6944 129.927 78.8238L129.946 78.7372L106.641 72.9224L102.146 90.9584C102.146 90.9584 114.684 93.8297 114.419 94.0077C121.263 95.7151 122.5 100.241 122.293 103.829L114.41 135.433C114.881 135.553 115.493 135.726 116.166 135.995C115.603 135.856 115.002 135.702 114.381 135.553L103.33 179.825C102.493 181.903 100.37 185.02 95.586 183.837C95.7544 184.082 83.3031 180.773 83.3031 180.773L74.9141 200.103L96.9048 205.581C100.996 206.605 105.005 207.678 108.952 208.688L101.958 236.747L118.838 240.955L125.764 213.194C130.374 214.445 134.851 215.599 139.23 216.686L132.329 244.317L149.227 248.526L156.22 220.519C185.036 225.969 206.704 223.771 215.825 197.727C223.174 176.757 215.459 164.661 200.298 156.773C211.339 154.229 219.656 146.971 221.875 131.979V131.979ZM183.265 186.083C178.043 207.052 142.71 195.716 131.255 192.874L140.535 155.7C151.99 158.557 188.723 164.213 183.265 186.083V186.083ZM188.492 131.676C183.727 150.751 154.319 141.06 144.78 138.684L153.193 104.969C162.732 107.345 193.454 111.779 188.492 131.676V131.676Z" fill="white"/>
</svg>
