<?xml version="1.0" standalone="no"?>
<!DOCTYPE svg PUBLIC "-//W3C//DTD SVG 20010904//EN"
 "http://www.w3.org/TR/2001/REC-SVG-20010904/DTD/svg10.dtd">
<svg version="1.0" xmlns="http://www.w3.org/2000/svg"
 width="328.000000pt" height="328.000000pt" viewBox="0 0 328.000000 328.000000"
 preserveAspectRatio="xMidYMid meet">
<metadata>
Created by potrace 1.14, written by Peter Selinger 2001-2017
</metadata>
<g transform="translate(0.000000,328.000000) scale(0.100000,-0.100000)"
fill="#000000" stroke="none">
<path d="M1770 3269 c0 -6 7 -17 15 -25 22 -23 18 -36 -7 -28 -62 19 -161 -18
-195 -74 -9 -15 -20 -19 -45 -15 -18 2 -38 4 -45 5 -24 3 -133 -47 -138 -63
-3 -9 -17 -22 -30 -29 -14 -7 -25 -16 -25 -20 0 -4 -23 -6 -52 -4 -39 2 -61
-2 -88 -18 -40 -24 -81 -63 -74 -71 3 -2 -3 -7 -12 -11 -15 -6 -16 0 -11 53 6
61 -3 78 -37 65 -12 -5 -61 -97 -61 -115 0 -4 -3 -11 -7 -14 -4 -4 -3 -16 3
-26 7 -13 6 -19 -1 -19 -6 0 -9 -4 -6 -8 14 -24 15 -70 1 -82 -8 -7 -15 -9
-15 -5 0 4 -10 -5 -22 -21 -12 -16 -28 -32 -35 -37 -6 -4 -10 -16 -8 -27 2
-11 0 -20 -4 -20 -5 0 -7 -10 -7 -22 5 -55 -38 -63 -85 -17 -39 38 -54 27 -50
-38 1 -19 12 -36 61 -92 21 -25 23 -41 5 -47 -8 -4 -15 -15 -15 -25 0 -10 -5
-19 -12 -19 -6 0 -8 -3 -5 -7 4 -3 0 -17 -8 -29 -18 -27 -28 -94 -14 -94 6 0
7 -6 1 -16 -9 -17 11 -72 32 -86 11 -7 -10 -38 -26 -38 -12 0 -47 -41 -48 -55
0 -5 -6 -21 -13 -35 -18 -36 -12 -115 12 -156 28 -47 27 -51 -15 -64 -29 -10
-38 -9 -52 3 -22 19 -42 11 -42 -17 0 -26 28 -56 52 -56 9 0 18 -5 20 -11 5
-14 85 -16 112 -4 16 7 18 5 13 -9 -4 -10 -7 -30 -7 -46 0 -27 -1 -28 -30 -17
-17 6 -30 15 -30 19 0 4 -8 8 -18 8 -10 0 -23 5 -28 10 -6 6 -38 11 -71 11
-125 2 -187 -69 -186 -211 1 -106 2 -118 13 -125 6 -3 10 -15 10 -26 0 -10 29
-48 64 -83 l64 -63 -31 -39 c-28 -33 -32 -46 -33 -103 -2 -103 34 -160 127
-203 47 -21 47 -21 34 -52 -19 -49 -8 -155 20 -183 8 -8 18 -19 22 -26 5 -7
33 -25 63 -41 48 -26 64 -29 137 -29 46 0 83 -3 83 -8 0 -4 5 -20 12 -36 6
-15 10 -32 10 -36 -1 -4 7 -17 18 -29 11 -12 20 -28 20 -36 0 -8 36 -49 79
-91 98 -94 106 -101 132 -106 12 -2 27 -9 35 -16 8 -6 14 -8 14 -4 0 5 8 2 18
-6 9 -8 26 -14 37 -14 11 0 23 -4 27 -10 5 -6 8 -5 8 4 0 10 3 11 14 2 7 -6
32 -12 55 -14 22 -1 41 -4 41 -7 0 -6 156 -3 185 4 11 2 28 5 37 5 9 1 24 8
32 17 9 8 16 13 16 10 0 -5 57 30 95 59 31 24 50 18 71 -25 10 -22 24 -40 31
-40 6 0 20 -11 31 -25 11 -14 23 -25 26 -25 4 0 23 -11 44 -23 20 -13 51 -27
67 -32 17 -4 37 -10 45 -13 27 -7 144 -8 173 0 31 8 94 59 116 94 8 12 32 30
52 40 101 45 179 186 146 263 -6 14 -26 41 -44 59 -18 18 -36 44 -39 57 -5 21
-2 78 6 120 1 6 1 12 0 15 -1 3 -4 25 -6 49 -6 71 -55 150 -102 166 -16 5 -20
13 -17 37 2 16 6 33 9 35 3 3 1 15 -5 26 -9 15 -8 18 2 12 8 -6 10 -4 4 5 -4
6 -9 29 -12 49 -2 20 -9 48 -14 63 -9 23 -7 32 17 65 16 21 32 40 36 43 12 9
30 63 35 104 3 23 19 57 39 84 32 40 65 101 70 127 1 6 3 12 4 15 13 36 18
199 7 245 -21 83 -20 90 12 124 17 18 31 40 31 47 0 10 10 14 33 13 70 -5 119
37 101 85 -8 20 -24 20 -60 1 -39 -20 -50 -5 -32 42 22 57 15 110 -22 163 -14
20 -15 27 -5 37 7 6 16 9 20 5 4 -4 6 -2 4 3 -1 6 3 23 9 38 27 64 6 120 -62
166 -35 25 -43 35 -39 54 3 14 -2 39 -11 56 -9 17 -14 31 -10 31 3 0 -1 11
-10 25 -9 13 -16 31 -16 40 0 8 -3 15 -7 15 -5 0 -21 12 -36 26 -20 17 -26 28
-20 37 9 11 9 56 0 97 -6 32 -29 61 -44 58 -20 -4 -36 -55 -20 -61 6 -2 8 -11
4 -21 -6 -14 -10 -15 -29 -5 -13 7 -25 15 -28 19 -50 73 -78 102 -90 95 -6 -4
-10 -2 -10 3 0 5 -22 8 -50 7 -46 -1 -50 1 -59 27 -6 15 -8 28 -5 28 7 0 -28
61 -47 80 -22 24 -47 31 -56 17 -12 -19 -11 -30 5 -49 13 -16 13 -18 -2 -18
-9 0 -31 8 -49 17 -18 9 -35 16 -39 15 -5 -1 -8 2 -8 7 0 6 -12 6 -28 1 -26
-7 -30 -5 -41 25 -6 18 -28 46 -47 62 -20 15 -45 36 -57 46 -22 19 -77 23 -77
6z"/>
</g>
</svg>
