<svg viewBox="0 0 16 16" xmlns="http://www.w3.org/2000/svg" id="icon">
<path d="M7 4.46632V0.533839C7 0.32188 7.24721 0.20609 7.41005 0.341784L9.76953 2.30802C9.88947 2.40797 9.88947 2.59219 9.76953 2.69213L7.41005 4.65837C7.24721 4.79407 7 4.67828 7 4.46632Z"/>
<path d="M9 15.4663V11.5338C9 11.3219 8.75279 11.2061 8.58995 11.3418L6.23047 13.308C6.11053 13.408 6.11053 13.5922 6.23047 13.6921L8.58995 15.6584C8.75279 15.7941 9 15.6783 9 15.4663Z"/>
<path fill-rule="evenodd" clip-rule="evenodd" d="M3 8.00008C3 9.55257 3.70697 10.9395 4.81839 11.8574C5.03131 12.0332 5.06137 12.3484 4.88552 12.5613C4.70968 12.7742 4.39453 12.8043 4.18161 12.6284C2.85003 11.5287 2 9.86346 2 8.00008C2 5.05837 4.1165 2.61206 6.90967 2.09899C6.9397 2.09348 6.96981 2.08818 7 2.08312V3.1C4.71778 3.56301 3 5.58145 3 8.00008ZM9 12.9002C11.2822 12.4371 13 10.4187 13 8.00008C13 6.44759 12.293 5.06065 11.1816 4.14277C10.9687 3.96692 10.9386 3.65177 11.1145 3.43885C11.2903 3.22593 11.6055 3.19588 11.8184 3.37172C13.15 4.47142 14 6.1367 14 8.00008C14 10.9418 11.8835 13.3881 9.09033 13.9012C9.0603 13.9067 9.03019 13.912 9 13.917V12.9002Z"/>
</svg>
