<svg viewBox="0 0 20 20" id="icon" xmlns="http://www.w3.org/2000/svg">
<path d="M20 3.125C20 3.82812 19.4414 4.47656 18.5 5C17.3633 5.62891 15.668 6.07422 13.7227 6.20703C13.5781 6.13672 13.4336 6.07031 13.2812 6.01172C11.7422 5.36719 9.69531 5 7.5 5C7.17578 5 6.85938 5.00781 6.54297 5.02344L6.5 5C5.55859 4.47656 5 3.82812 5 3.125C5 1.39844 8.35938 0 12.5 0C16.6406 0 20 1.39844 20 3.125ZM6.27734 6.29297C6.67578 6.26563 7.08594 6.25 7.5 6.25C9.92969 6.25 12.0859 6.73047 13.457 7.47656C14.4258 8.00391 15 8.66016 15 9.375C15 9.53125 14.9727 9.68359 14.918 9.83203C14.7383 10.3477 14.2539 10.8203 13.5508 11.2188C13.5469 11.2227 13.5391 11.2227 13.5352 11.2266C13.5234 11.2344 13.5117 11.2383 13.5 11.2461C12.1328 12.0039 9.95312 12.4961 7.5 12.4961C5.17188 12.4961 3.08984 12.0547 1.71094 11.3594C1.63672 11.3242 1.56641 11.2852 1.49609 11.2461C0.558594 10.7266 0 10.0781 0 9.375C0 8.01563 2.08594 6.85547 5 6.42969C5.41016 6.37109 5.83594 6.32422 6.27734 6.29297ZM16.25 9.375C16.25 8.51953 15.8359 7.81641 15.3086 7.28906C16.4141 7.11719 17.4258 6.84375 18.2852 6.48828C18.9219 6.22266 19.5156 5.89453 20 5.49219V6.875C20 7.62891 19.3555 8.32422 18.2891 8.86328C17.7188 9.15234 17.0234 9.39844 16.2422 9.58594C16.2461 9.51562 16.25 9.44922 16.25 9.37891V9.375ZM15 13.125C15 13.8281 14.4414 14.4766 13.5 15C13.4297 15.0391 13.3594 15.0742 13.2852 15.1133C11.9102 15.8086 9.82812 16.25 7.5 16.25C5.04688 16.25 2.86719 15.7578 1.5 15C0.558594 14.4766 0 13.8281 0 13.125V11.7422C0.488281 12.1445 1.07813 12.4727 1.71484 12.7383C3.25781 13.3828 5.30469 13.75 7.5 13.75C9.69531 13.75 11.7422 13.3828 13.2852 12.7383C13.5898 12.6133 13.8828 12.4688 14.1602 12.3125C14.3984 12.1797 14.6211 12.0312 14.832 11.875C14.8906 11.832 14.9453 11.7852 15 11.7422V11.875V12.0977V13.125ZM16.25 13.125V11.875V10.8633C16.9922 10.6992 17.6758 10.4922 18.2852 10.2383C18.9219 9.97266 19.5156 9.64453 20 9.24219V10.625C20 11.0352 19.8047 11.4453 19.418 11.832C18.7813 12.4687 17.6602 12.9922 16.2422 13.332C16.2461 13.2656 16.25 13.1953 16.25 13.125ZM7.5 17.5C9.69531 17.5 11.7422 17.1328 13.2852 16.4883C13.9219 16.2227 14.5156 15.8945 15 15.4922V16.875C15 18.6016 11.6406 20 7.5 20C3.35938 20 0 18.6016 0 16.875V15.4922C0.488281 15.8945 1.07813 16.2227 1.71484 16.4883C3.25781 17.1328 5.30469 17.5 7.5 17.5Z" />
</svg>
