<svg viewBox="0 0 24 24" id="icon" xmlns="http://www.w3.org/2000/svg">
<path d="M11.9468 24C8.87445 24 6.1977 22.9944 3.91657 20.9831C1.6364 18.9708 0.330871 16.4471 0 13.4118H2.16248C2.51699 15.8588 3.61595 17.8824 5.45938 19.4824C7.30281 21.0824 9.46529 21.8824 11.9468 21.8824C14.712 21.8824 17.0578 20.9233 18.9845 19.0052C20.9101 17.088 21.873 14.7529 21.873 12C21.873 9.24706 20.9101 6.91153 18.9845 4.99341C17.0578 3.07624 14.712 2.11765 11.9468 2.11765C10.4106 2.11765 8.96331 2.45882 7.60484 3.14118C6.24544 3.82353 5.08124 4.76471 4.11226 5.96471H7.79911V8.08235H0.602659V0.917647H2.72969V4.27059C3.88774 2.90588 5.27031 1.85271 6.8774 1.11106C8.48449 0.370353 10.1743 0 11.9468 0C13.6248 0 15.1965 0.317647 16.6617 0.952941C18.127 1.58824 19.4032 2.44706 20.4904 3.52941C21.5775 4.61176 22.434 5.87671 23.0599 7.32424C23.6866 8.77082 24 10.3294 24 12C24 13.6706 23.6866 15.2292 23.0599 16.6758C22.434 18.1233 21.5775 19.3882 20.4904 20.4706C19.4032 21.5529 18.127 22.4118 16.6617 23.0471C15.1965 23.6824 13.6248 24 11.9468 24ZM16.2009 17.6824L10.9188 12.4235V4.94118H13.0458V11.5765L17.6898 16.2L16.2009 17.6824Z"/>
</svg>
