<svg width="5" height="5" viewBox="0 0 16 16" xmlns="http://www.w3.org/2000/svg" id="icon">
<path d="M14.9727 49.3726L13.0329 47.4328L11.0931 49.3726L13.0329 51.3123L14.9727 49.3726ZM58.8649 35.6563C58.8649 34.1412 57.6367 32.913 56.1216 32.913C54.6065 32.913 53.3783 34.1412 53.3783 35.6563L58.8649 35.6563ZM24.0059 36.4597L13.0329 47.4328L16.9124 51.3123L27.8855 40.3393L24.0059 36.4597ZM13.0329 51.3123L24.0059 62.2854L27.8855 58.4058L16.9124 47.4328L13.0329 51.3123ZM14.9727 52.1158L45.1485 52.1158L45.1485 46.6293L14.9727 46.6293L14.9727 52.1158ZM58.8649 38.3995L58.8649 35.6563L53.3783 35.6563L53.3783 38.3995L58.8649 38.3995ZM45.1485 52.1158C52.7239 52.1158 58.8649 45.9748 58.8649 38.3995L53.3783 38.3995C53.3783 42.9447 49.6937 46.6293 45.1485 46.6293L45.1485 52.1158Z" />
<path d="M56.1211 16.4556L58.0609 18.3953L60.0007 16.4556L58.0609 14.5158L56.1211 16.4556ZM12.2289 30.1719C12.2289 31.6869 13.4571 32.9151 14.9721 32.9151C16.4872 32.9151 17.7154 31.6869 17.7154 30.1719L12.2289 30.1719ZM47.0878 29.3684L58.0609 18.3953L54.1813 14.5158L43.2083 25.4888L47.0878 29.3684ZM58.0609 14.5158L47.0878 3.54272L43.2083 7.42228L54.1813 18.3953L58.0609 14.5158ZM56.1211 13.7123L25.9452 13.7123L25.9452 19.1988L56.1211 19.1988L56.1211 13.7123ZM12.2289 27.4286L12.2289 30.1719L17.7154 30.1719L17.7154 27.4286L12.2289 27.4286ZM25.9452 13.7123C18.3699 13.7123 12.2289 19.8533 12.2289 27.4286L17.7154 27.4286C17.7154 22.8834 21.4 19.1988 25.9452 19.1988L25.9452 13.7123Z" />
</svg>
