<svg viewBox="0 0 18 16" xmlns="http://www.w3.org/2000/svg" id='icon'>
<path d="M16.056 0.501853C15.8103 0.512318 15.5849 0.58151 15.3869 0.657953C15.2039 0.728518 14.5469 0.998957 13.5007 1.4287C12.4545 1.85844 11.0682 2.42822 9.59052 3.03686C6.63518 4.25413 3.31414 5.6234 1.61245 6.32472C1.55401 6.34856 1.31668 6.41971 1.05456 6.61578C0.791837 6.8123 0.5 7.2388 0.5 7.70523C0.5 8.0815 0.691796 8.46471 0.923394 8.68411C1.15499 8.90351 1.38971 9.00609 1.58588 9.08249V9.08086C2.24899 9.33959 4.22925 10.1156 4.70073 10.3004C4.86798 10.7912 5.58593 12.8924 5.75673 13.4208H5.75507C5.87579 13.7948 5.99347 14.0385 6.15688 14.2419C6.23858 14.3437 6.33611 14.4358 6.45574 14.5086C6.50164 14.5365 6.55247 14.5582 6.60352 14.5785C6.61063 14.5815 6.61796 14.5822 6.6251 14.585L6.60518 14.5801C6.61998 14.586 6.63326 14.5946 6.64835 14.5997C6.67293 14.6079 6.68997 14.6077 6.72306 14.6143C6.83953 14.6494 6.95579 14.6728 7.06344 14.6728C7.52557 14.6728 7.80894 14.4273 7.80894 14.4273L7.82721 14.4143L9.82297 12.7606L12.267 14.9753C12.3117 15.037 12.6614 15.5005 13.4708 15.5005C13.9538 15.5005 14.3356 15.2664 14.5799 15.0208C14.8242 14.7752 14.9764 14.524 15.0448 14.1834L15.0465 14.1818C15.1011 13.9069 17.4407 2.40107 17.4407 2.40107L17.4358 2.42059C17.5086 2.10227 17.5301 1.79444 17.4441 1.48073C17.358 1.16703 17.1259 0.860884 16.8463 0.70023C16.5668 0.539577 16.3017 0.491387 16.056 0.501853ZM15.7206 2.32465C15.6281 2.77924 13.5323 13.091 13.4027 13.7379L9.87278 10.5394L7.48683 12.5151L8.14766 9.98494C8.14766 9.98494 12.7064 5.46583 12.981 5.20275C13.202 4.99212 13.2483 4.91828 13.2483 4.84502C13.2483 4.74761 13.1971 4.67754 13.079 4.67754C12.9727 4.67754 12.8284 4.77726 12.7519 4.82388C11.7796 5.41748 7.63869 7.72851 5.60231 8.86297C5.47976 8.81485 3.63987 8.09131 2.64852 7.7036C4.41187 6.9768 7.43455 5.73136 10.2497 4.57184C11.7271 3.96331 13.113 3.39302 14.1582 2.96368C15.0405 2.60127 15.5007 2.41363 15.7206 2.32465ZM13.3778 13.8566H13.3795C13.3794 13.8567 13.3779 13.8612 13.3778 13.8614C13.3789 13.8561 13.377 13.8608 13.3778 13.8566Z"/>
</svg>
